<?xml version="1.0" encoding="UTF-8"?>
<svg xmlns="http://www.w3.org/2000/svg" xmlns:xlink="http://www.w3.org/1999/xlink" width="250pt" height="141pt" viewBox="0 0 250 141" version="1.1">
<defs>
<clipPath id="clip1">
  <path d="M 51.953125 44.910156 L 198.046875 44.910156 L 198.046875 96.023438 L 51.953125 96.023438 Z M 51.953125 44.910156 "/>
</clipPath>
</defs>
<g id="surface1">
<g clip-path="url(#clip1)" clip-rule="nonzero">
<path style=" stroke:none;fill-rule:nonzero;fill:rgb(99.215686%,99.215686%,99.215686%);fill-opacity:1;" d="M 125.011719 96.011719 C 100.816406 96.011719 76.621094 96.011719 52.421875 96.023438 C 52.019531 96.023438 51.953125 95.929688 51.953125 95.542969 C 51.964844 78.824219 51.964844 62.105469 51.953125 45.390625 C 51.953125 44.996094 52.023438 44.910156 52.425781 44.910156 C 100.800781 44.921875 149.175781 44.921875 197.554688 44.910156 C 197.976562 44.910156 198.046875 45.011719 198.046875 45.414062 C 198.035156 62.132812 198.035156 78.851562 198.046875 95.570312 C 198.046875 95.933594 197.96875 96.023438 197.597656 96.023438 C 173.402344 96.011719 149.207031 96.011719 125.011719 96.011719 "/>
</g>
<path style=" stroke:none;fill-rule:nonzero;fill:rgb(0%,62.745098%,90.588235%);fill-opacity:1;" d="M 161.730469 62.894531 C 161.746094 61.570312 162.105469 60.316406 162.550781 59.089844 C 163.25 57.167969 164.292969 55.457031 165.707031 53.953125 C 167.570312 51.96875 169.792969 50.597656 172.390625 49.789062 C 174.109375 49.253906 175.867188 49.007812 177.648438 49.140625 C 180.21875 49.332031 182.636719 50.074219 184.824219 51.480469 C 185.144531 51.6875 185.480469 51.867188 185.746094 52.148438 C 185.734375 52.375 185.589844 52.492188 185.40625 52.582031 C 184.664062 52.945312 183.882812 53.203125 183.132812 53.542969 C 182.324219 53.914062 181.503906 54.261719 180.71875 54.691406 C 180.253906 54.945312 179.769531 55.210938 179.199219 55.277344 C 178.785156 55.320312 178.472656 55.671875 178.089844 55.847656 C 177.621094 56.0625 177.171875 56.332031 176.738281 56.621094 C 175.84375 56.753906 174.941406 56.839844 174.085938 57.1875 C 173.632812 57.371094 173.210938 57.605469 172.792969 57.851562 C 172.636719 57.941406 172.492188 58.046875 172.308594 58.070312 C 172.09375 58.042969 171.878906 58.058594 171.703125 58.191406 C 171.078125 58.675781 170.296875 58.851562 169.613281 59.214844 C 169.355469 59.351562 169.085938 59.460938 168.851562 59.640625 C 168.414062 59.984375 167.851562 60.039062 167.355469 60.265625 C 166.578125 60.625 165.792969 60.972656 165.027344 61.363281 C 164.199219 61.785156 163.390625 62.265625 162.507812 62.554688 C 162.230469 62.644531 162.058594 62.949219 161.730469 62.894531 "/>
<path style=" stroke:none;fill-rule:nonzero;fill:rgb(0%,0%,0%);fill-opacity:1;" d="M 61.523438 67.894531 C 61.523438 64.949219 61.535156 62 61.515625 59.054688 C 61.511719 58.601562 61.652344 58.382812 62.101562 58.359375 C 62.214844 58.355469 62.324219 58.320312 62.4375 58.3125 C 63.910156 58.214844 64.011719 58.308594 64.011719 59.757812 C 64.011719 61.828125 64.019531 63.894531 64.007812 65.960938 C 64.003906 66.292969 64.078125 66.40625 64.433594 66.402344 C 67.035156 66.386719 69.640625 66.386719 72.242188 66.402344 C 72.605469 66.40625 72.664062 66.277344 72.664062 65.957031 C 72.652344 63.644531 72.664062 61.332031 72.648438 59.019531 C 72.644531 58.617188 72.777344 58.433594 73.179688 58.367188 C 73.617188 58.292969 74.050781 58.300781 74.488281 58.335938 C 74.976562 58.378906 75.160156 58.601562 75.15625 59.125 C 75.136719 64.742188 75.144531 70.359375 75.144531 75.976562 C 75.144531 76.269531 75.136719 76.5625 75.148438 76.855469 C 75.160156 77.148438 75.039062 77.300781 74.746094 77.363281 C 74.214844 77.472656 73.6875 77.476562 73.152344 77.382812 C 72.769531 77.316406 72.648438 77.136719 72.648438 76.757812 C 72.664062 74.183594 72.648438 71.613281 72.664062 69.039062 C 72.667969 68.679688 72.601562 68.546875 72.199219 68.550781 C 69.609375 68.574219 67.023438 68.570312 64.4375 68.554688 C 64.097656 68.550781 64.003906 68.640625 64.003906 68.984375 C 64.019531 71.539062 64 74.09375 64.023438 76.648438 C 64.027344 77.136719 63.882812 77.371094 63.394531 77.417969 C 62.988281 77.453125 62.585938 77.457031 62.179688 77.421875 C 61.691406 77.375 61.507812 77.164062 61.511719 76.636719 C 61.539062 73.722656 61.523438 70.808594 61.523438 67.894531 "/>
<path style=" stroke:none;fill-rule:nonzero;fill:rgb(0%,0%,0%);fill-opacity:1;" d="M 78.96875 70.546875 C 78.964844 69.230469 79.148438 67.953125 79.699219 66.746094 C 80.53125 64.925781 81.9375 63.8125 83.890625 63.378906 C 85.167969 63.097656 86.449219 63.105469 87.707031 63.421875 C 89.6875 63.914062 91.042969 65.140625 91.640625 67.097656 C 92.417969 69.660156 92.390625 72.207031 91.09375 74.621094 C 90.179688 76.324219 88.65625 77.230469 86.78125 77.539062 C 85.398438 77.769531 84.019531 77.699219 82.699219 77.207031 C 80.523438 76.394531 79.507812 74.675781 79.121094 72.488281 C 79.003906 71.84375 78.976562 71.195312 78.96875 70.546875 "/>
<path style=" stroke:none;fill-rule:nonzero;fill:rgb(0%,0%,0%);fill-opacity:1;" d="M 123.886719 70.566406 C 123.882812 69.273438 124.058594 68.007812 124.589844 66.8125 C 125.417969 64.945312 126.839844 63.808594 128.832031 63.375 C 130.109375 63.097656 131.386719 63.113281 132.648438 63.429688 C 134.628906 63.929688 135.976562 65.167969 136.5625 67.121094 C 137.324219 69.652344 137.300781 72.164062 136.042969 74.558594 C 135.132812 76.289062 133.609375 77.214844 131.71875 77.535156 C 130.320312 77.773438 128.929688 77.699219 127.59375 77.195312 C 125.433594 76.382812 124.429688 74.675781 124.039062 72.511719 C 123.921875 71.867188 123.894531 71.21875 123.886719 70.566406 "/>
<path style=" stroke:none;fill-rule:nonzero;fill:rgb(0%,0%,0%);fill-opacity:1;" d="M 140.738281 63.59375 C 141.316406 63.253906 141.921875 63.355469 142.523438 63.488281 C 142.757812 63.539062 142.792969 63.734375 142.792969 63.945312 C 142.789062 64.445312 142.792969 64.945312 142.792969 65.523438 C 143.234375 65.125 143.613281 64.757812 144.019531 64.429688 C 145.347656 63.355469 146.851562 62.949219 148.53125 63.3125 C 150.371094 63.714844 151.628906 65.238281 151.855469 67.285156 C 151.929688 67.949219 151.960938 68.613281 151.957031 69.28125 C 151.957031 71.769531 151.949219 74.261719 151.964844 76.75 C 151.96875 77.164062 151.808594 77.351562 151.433594 77.410156 C 150.996094 77.476562 150.558594 77.46875 150.121094 77.417969 C 149.699219 77.371094 149.523438 77.160156 149.527344 76.703125 C 149.546875 74.179688 149.539062 71.660156 149.535156 69.136719 C 149.535156 68.535156 149.511719 67.933594 149.335938 67.351562 C 148.738281 65.386719 146.953125 64.6875 145.195312 65.746094 C 144.382812 66.242188 143.742188 66.933594 143.140625 67.667969 C 142.996094 67.84375 143.039062 68.035156 143.039062 68.226562 C 143.035156 71.039062 143.023438 73.855469 143.046875 76.667969 C 143.050781 77.175781 142.855469 77.402344 142.390625 77.425781 C 141.832031 77.449219 141.253906 77.566406 140.734375 77.234375 C 140.59375 77.070312 140.625 76.867188 140.625 76.675781 C 140.621094 72.5 140.621094 68.328125 140.625 64.152344 C 140.625 63.960938 140.589844 63.757812 140.738281 63.59375 "/>
<path style=" stroke:none;fill-rule:nonzero;fill:rgb(0%,58.039216%,83.137255%);fill-opacity:1;" d="M 168.566406 84.09375 C 168.96875 83.019531 169.410156 81.957031 169.347656 80.773438 C 169.402344 80.714844 169.441406 80.628906 169.519531 80.605469 C 170.195312 80.382812 170.6875 79.785156 171.421875 79.679688 C 171.570312 79.660156 171.683594 79.558594 171.800781 79.46875 C 172.128906 79.230469 172.453125 78.996094 172.898438 79.003906 C 173.1875 79.007812 173.410156 78.820312 173.589844 78.59375 C 173.726562 78.417969 173.894531 78.304688 174.132812 78.339844 C 174.585938 78.402344 174.921875 78.199219 175.1875 77.863281 C 175.351562 77.660156 175.539062 77.519531 175.804688 77.527344 C 176.257812 77.539062 176.628906 77.320312 176.953125 77.054688 C 177.398438 76.6875 177.914062 76.519531 178.460938 76.417969 C 178.558594 76.402344 178.664062 76.410156 178.742188 76.347656 C 179.667969 75.617188 180.867188 75.441406 181.855469 74.84375 C 182.375 74.527344 182.964844 74.417969 183.492188 74.175781 C 184.132812 73.882812 184.765625 73.542969 185.40625 73.238281 C 186.195312 72.863281 186.929688 72.390625 187.738281 72.054688 C 188.382812 71.785156 189.003906 71.464844 189.660156 71.234375 C 189.839844 71.171875 190.015625 71.039062 190.210938 71.199219 C 189.714844 72.214844 188.984375 73.074219 188.363281 74.007812 C 187.832031 74.8125 187.144531 75.472656 186.519531 76.191406 C 185.949219 76.375 185.488281 76.777344 184.914062 76.972656 C 183.984375 77.285156 183.125 77.765625 182.195312 78.09375 C 181.488281 78.339844 180.863281 78.828125 180.179688 79.167969 C 179.75 79.382812 179.25 79.476562 178.90625 79.855469 C 178.890625 79.875 178.867188 79.878906 178.867188 79.878906 C 177.945312 80.023438 177.261719 80.710938 176.332031 80.910156 C 175.574219 81.074219 174.859375 81.523438 174.132812 81.867188 C 173.449219 82.191406 172.839844 82.671875 172.09375 82.863281 C 171.550781 83.003906 171.171875 83.460938 170.625 83.609375 C 170.253906 83.710938 169.914062 83.875 169.59375 84.121094 C 169.296875 84.347656 168.898438 84.410156 168.566406 84.09375 "/>
<path style=" stroke:none;fill-rule:nonzero;fill:rgb(0%,0%,0%);fill-opacity:1;" d="M 118.371094 65.421875 L 114.375 65.421875 C 113.886719 65.421875 113.398438 65.417969 112.910156 65.421875 C 112.6875 65.425781 112.476562 65.386719 112.382812 65.160156 C 112.171875 64.660156 112.183594 64.144531 112.363281 63.640625 C 112.4375 63.433594 112.625 63.382812 112.84375 63.382812 C 115.316406 63.386719 117.785156 63.386719 120.257812 63.382812 C 120.726562 63.382812 120.933594 63.644531 120.980469 64.070312 C 121.058594 64.800781 120.933594 65.480469 120.527344 66.117188 C 118.65625 69.046875 116.796875 71.984375 114.9375 74.917969 C 114.871094 75.023438 114.757812 75.105469 114.761719 75.296875 C 114.914062 75.304688 115.066406 75.316406 115.21875 75.316406 C 116.992188 75.316406 118.765625 75.316406 120.539062 75.316406 C 121.15625 75.316406 121.308594 75.449219 121.371094 76.070312 C 121.394531 76.261719 121.390625 76.460938 121.363281 76.652344 C 121.28125 77.261719 121.167969 77.355469 120.546875 77.355469 C 118.027344 77.355469 115.507812 77.355469 112.984375 77.355469 C 112.28125 77.355469 112.082031 77.136719 112.039062 76.425781 C 111.988281 75.65625 112.253906 75.011719 112.660156 74.375 C 114.535156 71.46875 116.390625 68.550781 118.25 65.636719 C 118.28125 65.585938 118.308594 65.53125 118.371094 65.421875 "/>
<path style=" stroke:none;fill-rule:nonzero;fill:rgb(0%,57.254902%,81.960784%);fill-opacity:1;" d="M 168.566406 84.09375 C 169.042969 84.21875 169.480469 84.222656 169.820312 83.769531 C 170 83.535156 170.328125 83.597656 170.582031 83.503906 C 171.257812 83.25 171.871094 82.863281 172.511719 82.558594 C 173.125 82.265625 173.84375 82.070312 174.359375 81.558594 C 174.40625 81.515625 174.464844 81.460938 174.523438 81.453125 C 175.398438 81.335938 176.066406 80.679688 176.953125 80.558594 C 177.382812 80.5 177.90625 80.433594 178.058594 79.851562 C 178.101562 79.6875 178.253906 79.707031 178.382812 79.785156 C 178.535156 79.882812 178.691406 79.894531 178.832031 79.777344 C 179.671875 79.082031 180.800781 78.898438 181.644531 78.230469 C 182.175781 77.808594 182.84375 77.746094 183.425781 77.4375 C 184.03125 77.113281 184.730469 76.84375 185.40625 76.601562 C 185.683594 76.503906 185.945312 76.40625 186.128906 76.144531 C 186.257812 75.953125 186.402344 76.046875 186.519531 76.191406 C 185.382812 77.433594 184.117188 78.53125 182.886719 79.671875 C 182.285156 80.230469 181.660156 80.761719 181.054688 81.3125 C 180.121094 82.164062 179.128906 82.9375 178.128906 83.707031 C 177.648438 83.761719 177.21875 83.933594 176.835938 84.226562 C 176.574219 84.429688 176.230469 84.453125 175.957031 84.636719 C 175.796875 84.742188 175.601562 84.796875 175.488281 84.972656 C 175.4375 85.054688 175.363281 85.132812 175.257812 85.132812 C 174.460938 85.140625 173.839844 85.609375 173.175781 85.949219 C 172.710938 86.1875 172.179688 86.25 171.730469 86.523438 C 170.351562 87.351562 168.792969 87.785156 167.382812 88.539062 C 167.152344 88.664062 166.933594 88.789062 166.730469 88.960938 C 166.589844 89.082031 166.4375 89.242188 166.222656 89.078125 C 167.019531 87.425781 167.839844 85.78125 168.566406 84.09375 "/>
<path style=" stroke:none;fill-rule:nonzero;fill:rgb(0%,58.431373%,83.921569%);fill-opacity:1;" d="M 190.210938 71.199219 C 189.683594 71.351562 189.175781 71.53125 188.691406 71.789062 C 188.289062 71.996094 187.839844 72.105469 187.433594 72.308594 C 186.738281 72.664062 186.078125 73.089844 185.371094 73.417969 C 184.746094 73.707031 184.085938 73.910156 183.542969 74.371094 C 183.351562 74.539062 183.050781 74.339844 182.773438 74.5 C 182.023438 74.925781 181.226562 75.28125 180.449219 75.664062 C 180.335938 75.71875 180.21875 75.8125 180.101562 75.820312 C 179.589844 75.851562 179.167969 76.03125 178.863281 76.453125 C 178.828125 76.503906 178.753906 76.554688 178.703125 76.550781 C 177.847656 76.488281 177.246094 77.019531 176.601562 77.449219 C 176.5625 77.476562 176.519531 77.527344 176.480469 77.523438 C 175.691406 77.484375 175.214844 78.074219 174.628906 78.445312 C 174.617188 78.453125 174.601562 78.472656 174.589844 78.46875 C 173.957031 78.265625 173.648438 78.800781 173.210938 79.0625 C 172.882812 79.257812 172.425781 79.082031 172.109375 79.402344 C 171.722656 79.796875 171.0625 79.746094 170.722656 80.054688 C 170.296875 80.445312 169.785156 80.503906 169.347656 80.773438 C 169.390625 80.039062 169.058594 79.398438 168.835938 78.730469 C 168.886719 78.207031 169.324219 78.070312 169.703125 78.050781 C 170.320312 78.019531 170.796875 77.746094 171.320312 77.472656 C 171.910156 77.164062 172.472656 76.746094 173.167969 76.660156 C 173.472656 76.625 173.703125 76.457031 173.917969 76.242188 C 174.179688 75.972656 174.476562 75.746094 174.890625 75.78125 C 175.03125 75.796875 175.132812 75.703125 175.234375 75.617188 C 175.320312 75.546875 175.40625 75.449219 175.523438 75.441406 C 176.488281 75.367188 177.109375 74.617188 177.921875 74.238281 C 178.023438 74.191406 178.097656 74.058594 178.207031 74.058594 C 179.164062 74.070312 179.835938 73.359375 180.667969 73.046875 C 181.546875 72.71875 182.398438 72.269531 183.261719 71.871094 C 185.058594 71.050781 186.839844 70.191406 188.691406 69.492188 C 188.847656 69.433594 188.976562 69.34375 189.085938 69.21875 C 189.207031 69.082031 189.347656 68.96875 189.53125 68.9375 C 189.984375 68.863281 190.417969 68.757812 190.789062 68.460938 C 190.925781 68.347656 191.121094 68.316406 191.28125 68.464844 C 191.03125 69.417969 190.621094 70.308594 190.210938 71.199219 "/>
<path style=" stroke:none;fill-rule:nonzero;fill:rgb(0%,59.215686%,85.098039%);fill-opacity:1;" d="M 167.882812 77.351562 C 167.480469 76.832031 167.082031 76.316406 166.683594 75.796875 C 166.757812 75.578125 166.953125 75.519531 167.140625 75.480469 C 167.59375 75.382812 168 75.183594 168.359375 74.898438 C 168.769531 74.570312 169.214844 74.339844 169.746094 74.265625 C 170.421875 74.167969 170.90625 73.667969 171.5 73.386719 C 171.617188 73.335938 171.710938 73.21875 171.835938 73.199219 C 172.714844 73.089844 173.40625 72.523438 174.210938 72.238281 C 174.546875 72.121094 174.757812 71.789062 175.085938 71.644531 C 175.316406 71.578125 175.542969 71.644531 175.761719 71.675781 C 178.214844 72 180.324219 71.253906 182.105469 69.582031 C 182.695312 69.027344 183.164062 68.351562 183.527344 67.613281 C 183.621094 67.425781 183.695312 67.226562 183.847656 67.070312 C 184.765625 66.75 185.609375 66.242188 186.503906 65.882812 C 187.980469 65.289062 189.347656 64.476562 190.8125 63.867188 C 191.144531 63.730469 191.476562 63.523438 191.867188 63.582031 C 191.949219 64.5 191.828125 65.40625 191.769531 66.316406 C 191.386719 66.597656 190.910156 66.6875 190.492188 66.898438 C 189.515625 67.394531 188.546875 67.902344 187.601562 68.453125 C 187.5 68.507812 187.402344 68.5625 187.289062 68.585938 C 186.652344 68.710938 186.023438 68.925781 185.484375 69.238281 C 184.875 69.59375 184.207031 69.785156 183.601562 70.121094 C 183.257812 70.3125 182.90625 70.453125 182.539062 70.589844 C 182.09375 70.75 181.75 71.140625 181.277344 71.285156 C 180.769531 71.4375 180.363281 71.867188 179.789062 71.832031 C 179.742188 71.828125 179.671875 71.839844 179.652344 71.871094 C 179.378906 72.367188 178.785156 72.308594 178.394531 72.601562 C 178.34375 72.640625 178.414062 72.621094 178.355469 72.625 C 177.515625 72.726562 176.988281 73.507812 176.199219 73.648438 C 175.375 73.792969 174.757812 74.363281 173.960938 74.5625 C 173.5 74.675781 173.117188 75.070312 172.648438 75.269531 C 172.324219 75.40625 171.976562 75.4375 171.644531 75.578125 C 170.390625 76.109375 169.214844 76.800781 167.976562 77.359375 C 167.949219 77.371094 167.914062 77.363281 167.882812 77.351562 "/>
<path style=" stroke:none;fill-rule:nonzero;fill:rgb(0%,0%,0%);fill-opacity:1;" d="M 95.824219 63.59375 C 96.398438 63.253906 97.007812 63.355469 97.609375 63.488281 C 97.84375 63.539062 97.878906 63.734375 97.878906 63.949219 C 97.871094 64.5 97.875 65.050781 97.875 65.710938 C 98.203125 65.308594 98.46875 64.976562 98.742188 64.648438 C 99.816406 63.367188 101.136719 62.875 102.777344 63.382812 C 103.191406 63.511719 103.402344 63.742188 103.398438 64.183594 C 103.390625 64.589844 103.414062 64.996094 103.363281 65.402344 C 103.3125 65.820312 103.101562 65.910156 102.71875 65.78125 C 102.1875 65.597656 101.65625 65.398438 101.066406 65.492188 C 100.582031 65.570312 100.191406 65.8125 99.832031 66.128906 C 99.167969 66.71875 98.703125 67.464844 98.207031 68.191406 C 98.085938 68.371094 98.121094 68.566406 98.121094 68.757812 C 98.117188 71.394531 98.105469 74.03125 98.128906 76.667969 C 98.136719 77.171875 97.941406 77.402344 97.476562 77.425781 C 96.917969 77.449219 96.339844 77.566406 95.816406 77.234375 C 95.679688 77.070312 95.710938 76.867188 95.710938 76.675781 C 95.707031 72.5 95.707031 68.328125 95.710938 64.152344 C 95.710938 63.960938 95.675781 63.757812 95.824219 63.59375 "/>
<path style=" stroke:none;fill-rule:nonzero;fill:rgb(0%,58.823529%,84.313725%);fill-opacity:1;" d="M 167.882812 77.351562 C 168.519531 76.820312 169.347656 76.636719 170.03125 76.1875 C 170.589844 75.824219 171.257812 75.683594 171.8125 75.3125 C 171.867188 75.277344 171.925781 75.222656 171.980469 75.226562 C 172.640625 75.269531 173.148438 74.945312 173.628906 74.558594 C 173.828125 74.398438 174.070312 74.347656 174.300781 74.289062 C 174.664062 74.191406 174.996094 74.058594 175.292969 73.804688 C 175.511719 73.621094 175.859375 73.667969 176.082031 73.574219 C 176.523438 73.386719 177.03125 73.25 177.378906 72.867188 C 177.558594 72.671875 177.734375 72.476562 178.046875 72.621094 C 178.199219 72.691406 178.261719 72.511719 178.371094 72.464844 C 178.859375 72.269531 179.292969 71.839844 179.730469 71.75 C 180.253906 71.640625 180.710938 71.417969 181.140625 71.203125 C 182.304688 70.621094 183.449219 70.007812 184.667969 69.554688 C 184.871094 69.476562 185.066406 69.417969 185.171875 69.207031 C 185.253906 69.054688 185.40625 69.054688 185.554688 69.050781 C 185.667969 69.046875 185.835938 69.0625 185.878906 69 C 186.234375 68.507812 186.851562 68.730469 187.273438 68.460938 C 187.835938 68.105469 188.480469 67.910156 189.003906 67.492188 C 189.21875 67.324219 189.445312 67.207031 189.746094 67.175781 C 190.078125 67.140625 190.308594 66.824219 190.636719 66.6875 C 191.011719 66.53125 191.382812 66.410156 191.769531 66.316406 C 191.609375 67.03125 191.445312 67.75 191.28125 68.464844 C 190.5625 68.855469 189.699219 68.890625 189.035156 69.457031 C 188.707031 69.738281 188.230469 69.855469 187.804688 70.003906 C 187.003906 70.285156 186.1875 70.578125 185.449219 70.960938 C 184.703125 71.347656 183.941406 71.691406 183.183594 72.046875 C 182.746094 72.25 182.3125 72.558594 181.898438 72.664062 C 181.230469 72.832031 180.753906 73.332031 180.09375 73.46875 C 179.757812 73.539062 179.328125 73.5625 179.210938 74.03125 C 179.199219 74.078125 179.074219 74.128906 179.003906 74.121094 C 177.914062 74.054688 177.25 74.898438 176.394531 75.332031 C 176.164062 75.449219 175.992188 75.667969 175.695312 75.523438 C 175.648438 75.5 175.535156 75.511719 175.515625 75.546875 C 175.253906 76.035156 174.6875 75.839844 174.320312 76.078125 C 174.257812 76.121094 174.164062 76.117188 174.117188 76.195312 C 173.75 76.796875 173.097656 76.8125 172.515625 76.964844 C 172.453125 76.980469 172.367188 76.96875 172.332031 77.007812 C 171.863281 77.539062 171.105469 77.589844 170.601562 78.0625 C 170.445312 78.207031 170.222656 78.136719 170.035156 78.132812 C 169.519531 78.113281 169.117188 78.296875 168.835938 78.730469 C 168.519531 78.273438 168.199219 77.8125 167.882812 77.351562 "/>
<path style=" stroke:none;fill-rule:nonzero;fill:rgb(0%,61.568627%,88.627451%);fill-opacity:1;" d="M 176.75 56.53125 C 177.261719 56.105469 177.84375 55.816406 178.449219 55.550781 C 178.703125 55.4375 178.898438 55.101562 179.179688 55.121094 C 179.503906 55.144531 179.699219 54.96875 179.957031 54.871094 C 181.070312 54.445312 182.082031 53.796875 183.207031 53.394531 C 183.933594 53.132812 184.632812 52.785156 185.347656 52.492188 C 185.527344 52.417969 185.605469 52.253906 185.746094 52.148438 C 186.9375 52.941406 187.90625 53.964844 188.765625 55.105469 C 188.832031 55.195312 188.898438 55.28125 188.96875 55.371094 C 188.761719 55.574219 188.5 55.722656 188.335938 55.972656 C 188.300781 56.023438 188.246094 56.085938 188.1875 56.09375 C 187.4375 56.164062 186.921875 56.816406 186.171875 56.886719 C 186.109375 56.894531 186.046875 56.914062 185.992188 56.949219 C 184.753906 57.722656 183.394531 58.214844 182.003906 58.636719 C 181.773438 58.621094 181.632812 58.449219 181.472656 58.320312 C 180.238281 57.316406 178.808594 56.820312 177.242188 56.679688 C 177.070312 56.660156 176.878906 56.699219 176.75 56.53125 "/>
<path style=" stroke:none;fill-rule:nonzero;fill:rgb(0%,61.960784%,89.019608%);fill-opacity:1;" d="M 161.730469 62.894531 C 162.28125 62.425781 162.960938 62.230469 163.617188 61.984375 C 163.738281 61.9375 163.875 61.898438 163.964844 61.8125 C 164.511719 61.3125 165.226562 61.085938 165.867188 60.78125 C 166.339844 60.554688 166.785156 60.136719 167.375 60.160156 C 167.519531 60.164062 167.609375 60.074219 167.679688 59.953125 C 167.71875 59.890625 167.804688 59.792969 167.851562 59.800781 C 168.660156 59.957031 169.09375 59.226562 169.742188 58.996094 C 170.417969 58.757812 171.113281 58.511719 171.703125 58.058594 C 171.851562 57.941406 172.0625 57.796875 172.261719 58.023438 C 172.292969 58.226562 172.125 58.300781 172.007812 58.40625 C 170.546875 59.691406 169.582031 61.253906 169.335938 63.21875 C 169.320312 63.367188 169.265625 63.5 169.171875 63.617188 C 168.476562 64.050781 167.722656 64.359375 166.964844 64.660156 C 166.644531 64.785156 166.320312 64.902344 166.050781 65.109375 C 165.722656 65.355469 165.300781 65.402344 164.980469 65.574219 C 164.554688 65.804688 164.09375 65.957031 163.675781 66.191406 C 163.179688 66.472656 162.609375 66.589844 162.144531 66.925781 C 162.042969 67 161.925781 66.988281 161.828125 66.902344 C 161.753906 65.996094 161.566406 65.097656 161.613281 64.179688 C 161.636719 63.75 161.578125 63.3125 161.730469 62.894531 "/>
<path style=" stroke:none;fill-rule:nonzero;fill:rgb(0%,0%,0%);fill-opacity:1;" d="M 106.25 63.628906 C 106.917969 63.230469 107.621094 63.347656 108.3125 63.515625 C 108.609375 63.589844 108.566406 63.890625 108.566406 64.136719 C 108.566406 67.824219 108.566406 71.515625 108.566406 75.207031 C 108.566406 75.746094 108.554688 76.28125 108.570312 76.816406 C 108.582031 77.15625 108.441406 77.339844 108.113281 77.382812 C 107.484375 77.464844 106.859375 77.570312 106.265625 77.234375 C 106.125 77.070312 106.15625 76.867188 106.15625 76.675781 C 106.15625 72.535156 106.15625 68.390625 106.15625 64.25 C 106.15625 64.039062 106.160156 63.828125 106.25 63.628906 "/>
<path style=" stroke:none;fill-rule:nonzero;fill:rgb(0%,60.392157%,87.058824%);fill-opacity:1;" d="M 164.632812 73.257812 C 163.820312 72.257812 163.210938 71.144531 162.777344 69.933594 C 163.078125 69.53125 163.589844 69.515625 163.988281 69.28125 C 164.804688 68.796875 165.695312 68.433594 166.53125 67.976562 C 166.660156 67.90625 166.800781 67.871094 166.949219 67.855469 C 167.027344 67.847656 167.136719 67.867188 167.183594 67.820312 C 167.609375 67.398438 168.164062 67.242188 168.695312 67.015625 C 168.960938 66.898438 169.199219 66.75 169.5 66.738281 C 169.667969 66.761719 169.746094 66.890625 169.796875 67.027344 C 170.203125 68.050781 170.839844 68.917969 171.609375 69.695312 C 171.679688 69.765625 171.730469 69.847656 171.734375 69.953125 C 171.726562 70.054688 171.699219 70.175781 171.617188 70.207031 C 171.019531 70.429688 170.5 70.832031 169.878906 70.996094 C 169.738281 71.035156 169.570312 71.039062 169.480469 71.152344 C 169.160156 71.570312 168.714844 71.699219 168.226562 71.792969 C 167.847656 71.871094 167.492188 72.035156 167.164062 72.253906 C 166.8125 72.488281 166.433594 72.65625 166.011719 72.742188 C 165.714844 72.804688 165.425781 72.917969 165.167969 73.101562 C 165.015625 73.214844 164.847656 73.328125 164.632812 73.257812 "/>
<path style=" stroke:none;fill-rule:nonzero;fill:rgb(0%,59.607843%,85.490196%);fill-opacity:1;" d="M 164.632812 73.257812 C 165.21875 72.917969 165.8125 72.613281 166.488281 72.46875 C 166.785156 72.40625 167.046875 72.171875 167.324219 72.011719 C 167.714844 71.785156 168.128906 71.617188 168.582031 71.589844 C 168.863281 71.574219 169.066406 71.445312 169.230469 71.214844 C 169.40625 70.96875 169.636719 70.859375 169.964844 70.863281 C 170.347656 70.871094 170.578125 70.484375 170.941406 70.355469 C 171.183594 70.269531 171.601562 70.332031 171.675781 69.917969 C 171.867188 69.878906 171.972656 70.019531 172.09375 70.117188 C 172.878906 70.726562 173.738281 71.183594 174.695312 71.464844 C 174.847656 71.507812 175.011719 71.535156 175.089844 71.703125 C 174.71875 72.199219 174.171875 72.417969 173.632812 72.648438 C 172.742188 73.027344 171.757812 73.265625 170.984375 73.808594 C 170.367188 74.242188 169.734375 74.371094 169.070312 74.527344 C 168.839844 74.582031 168.773438 74.804688 168.605469 74.929688 C 168.023438 75.359375 167.335938 75.535156 166.683594 75.796875 C 166.085938 75.078125 165.488281 74.367188 164.894531 73.644531 C 164.796875 73.527344 164.71875 73.386719 164.632812 73.257812 "/>
<path style=" stroke:none;fill-rule:nonzero;fill:rgb(0%,60%,85.882353%);fill-opacity:1;" d="M 191.867188 63.582031 C 190.660156 64.054688 189.472656 64.585938 188.320312 65.183594 C 187.027344 65.851562 185.679688 66.390625 184.363281 67.003906 C 184.210938 67.074219 184.058594 67.105469 183.894531 67.097656 C 183.835938 67.007812 183.847656 66.910156 183.878906 66.816406 C 184.210938 65.8125 184.378906 64.78125 184.332031 63.71875 C 184.328125 63.621094 184.347656 63.527344 184.382812 63.433594 C 184.46875 63.25 184.632812 63.171875 184.816406 63.175781 C 185.28125 63.1875 185.675781 62.976562 186.050781 62.765625 C 186.839844 62.3125 187.664062 61.953125 188.535156 61.679688 C 189.320312 61.4375 189.960938 60.855469 190.78125 60.675781 C 190.984375 60.632812 191.171875 60.488281 191.378906 60.648438 C 191.671875 61.195312 191.710938 61.808594 191.765625 62.394531 C 191.800781 62.789062 191.933594 63.179688 191.867188 63.582031 "/>
<path style=" stroke:none;fill-rule:nonzero;fill:rgb(0%,61.176471%,88.235294%);fill-opacity:1;" d="M 169.535156 66.800781 C 169.222656 66.929688 168.808594 66.886719 168.660156 67.304688 C 168.652344 67.328125 168.601562 67.363281 168.582031 67.355469 C 168.035156 67.164062 167.789062 67.542969 167.441406 67.859375 C 167.160156 68.117188 166.648438 67.988281 166.277344 68.25 C 165.46875 68.816406 164.464844 69.015625 163.671875 69.636719 C 163.4375 69.820312 163.078125 69.839844 162.777344 69.933594 C 162.328125 69.078125 162.152344 68.140625 161.910156 67.21875 C 161.882812 67.113281 161.855469 67.007812 161.828125 66.902344 C 162.382812 66.707031 162.90625 66.425781 163.417969 66.15625 C 163.902344 65.90625 164.558594 65.953125 164.875 65.386719 C 164.890625 65.355469 164.976562 65.332031 165.007812 65.347656 C 165.421875 65.546875 165.644531 65.191406 165.929688 65.03125 C 166.5625 64.683594 167.21875 64.417969 167.902344 64.175781 C 168.296875 64.035156 168.703125 63.761719 169.117188 63.582031 C 169.265625 63.695312 169.273438 63.863281 169.273438 64.023438 C 169.261719 64.808594 169.382812 65.574219 169.578125 66.335938 C 169.617188 66.492188 169.65625 66.65625 169.535156 66.800781 "/>
<path style=" stroke:none;fill-rule:nonzero;fill:rgb(0%,56.470588%,81.176471%);fill-opacity:1;" d="M 166.222656 89.078125 C 166.300781 89.0625 166.402344 89.078125 166.457031 89.035156 C 167.558594 88.101562 168.925781 87.652344 170.222656 87.132812 C 171.160156 86.753906 171.980469 86.15625 172.976562 85.871094 C 173.496094 85.722656 174.058594 85.4375 174.5625 85.132812 C 174.753906 85.015625 174.917969 84.832031 175.160156 85.039062 C 175.1875 85.0625 175.304688 85.046875 175.328125 85.011719 C 175.902344 84.265625 176.863281 84.1875 177.578125 83.683594 C 177.761719 83.554688 177.949219 83.609375 178.128906 83.707031 C 176.851562 84.789062 175.496094 85.757812 174.136719 86.726562 C 171.320312 88.734375 168.378906 90.554688 165.417969 92.34375 C 165.273438 92.433594 165.085938 92.625 164.910156 92.40625 C 164.789062 92.253906 164.6875 92.09375 164.820312 91.84375 C 165.308594 90.933594 165.757812 90 166.222656 89.078125 "/>
<path style=" stroke:none;fill-rule:nonzero;fill:rgb(0%,61.176471%,87.843137%);fill-opacity:1;" d="M 182.019531 58.609375 C 182.035156 58.527344 182.054688 58.4375 182.144531 58.421875 C 183.152344 58.273438 184.015625 57.753906 184.925781 57.351562 C 185.800781 56.964844 186.707031 56.648438 187.511719 56.113281 C 188.226562 56.320312 188.355469 55.371094 188.96875 55.371094 C 189.558594 56.15625 190.09375 56.976562 190.429688 57.910156 C 190.398438 58.035156 190.308594 58.113281 190.199219 58.140625 C 189.644531 58.285156 189.171875 58.625 188.640625 58.816406 C 188.078125 59.019531 187.613281 59.402344 187.023438 59.570312 C 186.488281 59.71875 185.992188 60.003906 185.476562 60.238281 C 185.109375 60.40625 184.734375 60.554688 184.433594 60.851562 C 184.273438 61.011719 184.070312 61.125 183.824219 61.101562 C 183.222656 60.269531 182.617188 59.441406 182.019531 58.609375 "/>
<path style=" stroke:none;fill-rule:nonzero;fill:rgb(0%,0%,0%);fill-opacity:1;" d="M 148.589844 83.695312 C 149.253906 82.671875 150.140625 82.363281 151.234375 82.621094 C 152.058594 82.816406 152.453125 83.300781 152.429688 84.152344 C 152.390625 85.519531 152.308594 86.882812 152.253906 88.246094 C 152.246094 88.441406 152.183594 88.507812 152 88.492188 C 151.855469 88.480469 151.703125 88.46875 151.5625 88.488281 C 151.285156 88.53125 151.242188 88.414062 151.261719 88.164062 C 151.332031 87.160156 151.382812 86.152344 151.441406 85.144531 C 151.449219 85 151.453125 84.851562 151.453125 84.707031 C 151.460938 83.875 151.230469 83.488281 150.644531 83.339844 C 149.976562 83.171875 149.253906 83.496094 148.914062 84.125 C 148.558594 84.78125 148.609375 85.511719 148.558594 86.222656 C 148.515625 86.851562 148.515625 87.488281 148.519531 88.125 C 148.523438 88.414062 148.433594 88.507812 148.125 88.492188 C 147.496094 88.453125 147.503906 88.476562 147.53125 87.875 C 147.585938 86.800781 147.636719 85.730469 147.664062 84.65625 C 147.683594 83.886719 147.488281 83.578125 146.9375 83.382812 C 146.390625 83.1875 145.71875 83.394531 145.328125 83.890625 C 144.945312 84.375 144.859375 84.953125 144.828125 85.542969 C 144.785156 86.402344 144.742188 87.265625 144.738281 88.125 C 144.734375 88.789062 144.253906 88.398438 144.003906 88.476562 C 143.632812 88.589844 143.734375 88.285156 143.742188 88.097656 C 143.808594 86.40625 143.882812 84.71875 143.941406 83.027344 C 143.960938 82.46875 144.359375 82.800781 144.582031 82.734375 C 144.789062 82.675781 144.964844 82.726562 144.910156 83.027344 C 144.878906 83.203125 144.90625 83.386719 144.90625 83.632812 C 145.496094 82.757812 146.296875 82.40625 147.289062 82.574219 C 147.894531 82.679688 148.378906 82.980469 148.589844 83.695312 "/>
<path style=" stroke:none;fill-rule:nonzero;fill:rgb(0%,60.392157%,87.058824%);fill-opacity:1;" d="M 183.796875 61.039062 C 184.34375 60.945312 184.636719 60.425781 185.148438 60.246094 C 185.960938 59.957031 186.746094 59.585938 187.527344 59.234375 C 188.199219 58.933594 188.898438 58.640625 189.53125 58.242188 C 189.816406 58.066406 190.171875 58.128906 190.429688 57.910156 C 190.925781 58.761719 191.226562 59.679688 191.378906 60.648438 C 190.664062 60.890625 189.894531 60.988281 189.289062 61.519531 C 189.117188 61.667969 188.855469 61.734375 188.625 61.789062 C 187.472656 62.074219 186.476562 62.6875 185.441406 63.222656 C 185.128906 63.382812 184.757812 63.183594 184.453125 63.390625 C 184.328125 63.390625 184.28125 63.296875 184.269531 63.199219 C 184.171875 62.554688 183.992188 61.933594 183.769531 61.320312 C 183.734375 61.230469 183.730469 61.128906 183.796875 61.039062 "/>
<path style=" stroke:none;fill-rule:nonzero;fill:rgb(0%,0%,0%);fill-opacity:1;" d="M 159.574219 85.433594 C 159.558594 87.386719 158.351562 88.605469 156.457031 88.589844 C 154.6875 88.570312 153.589844 87.417969 153.613281 85.597656 C 153.632812 83.726562 154.855469 82.519531 156.710938 82.53125 C 158.511719 82.542969 159.585938 83.636719 159.574219 85.433594 "/>
<path style=" stroke:none;fill-rule:nonzero;fill:rgb(0%,0%,0%);fill-opacity:1;" d="M 129.84375 87.449219 C 129.015625 88.628906 127.9375 88.71875 126.785156 88.488281 C 125.871094 88.308594 125.394531 87.734375 125.414062 86.8125 C 125.441406 85.542969 125.511719 84.277344 125.574219 83.011719 C 125.605469 82.449219 126.042969 82.816406 126.277344 82.738281 C 126.5625 82.640625 126.574219 82.847656 126.5625 83.070312 C 126.492188 84.191406 126.410156 85.308594 126.371094 86.429688 C 126.34375 87.214844 126.625 87.546875 127.382812 87.746094 C 128.546875 88.054688 129.566406 87.453125 129.8125 86.28125 C 130.027344 85.238281 129.996094 84.175781 130 83.121094 C 130 82.429688 130.480469 82.796875 130.75 82.734375 C 131.136719 82.648438 131 82.957031 130.992188 83.136719 C 130.90625 84.726562 130.75 86.316406 130.785156 87.90625 C 130.796875 88.476562 130.558594 88.5 130.113281 88.496094 C 129.515625 88.488281 129.917969 88.074219 129.820312 87.867188 C 129.785156 87.792969 129.828125 87.679688 129.84375 87.449219 "/>
<path style=" stroke:none;fill-rule:nonzero;fill:rgb(0%,0%,0%);fill-opacity:1;" d="M 121.25 85.011719 C 121.25 83.972656 121.230469 82.933594 121.261719 81.894531 C 121.269531 81.519531 121.160156 81.417969 120.800781 81.449219 C 120.25 81.5 119.699219 81.519531 119.148438 81.53125 C 119.019531 81.535156 118.714844 81.679688 118.820312 81.335938 C 118.890625 81.109375 118.550781 80.667969 119.144531 80.671875 C 120.558594 80.683594 121.972656 80.675781 123.386719 80.675781 C 123.679688 80.675781 123.972656 80.675781 124.265625 80.675781 C 124.78125 80.675781 124.9375 80.929688 124.753906 81.414062 C 124.671875 81.636719 124.511719 81.539062 124.394531 81.519531 C 123.8125 81.429688 123.226562 81.480469 122.640625 81.453125 C 122.371094 81.4375 122.28125 81.519531 122.269531 81.796875 C 122.210938 83.808594 122.132812 85.824219 122.070312 87.835938 C 122.050781 88.46875 122.066406 88.433594 121.449219 88.492188 C 121 88.53125 120.929688 88.402344 120.964844 87.980469 C 121.054688 86.996094 121.078125 86.003906 121.128906 85.011719 C 121.167969 85.011719 121.210938 85.011719 121.25 85.011719 "/>
<path style=" stroke:none;fill-rule:nonzero;fill:rgb(0.392157%,0%,0.392157%);fill-opacity:1;" d="M 142.582031 83.390625 C 141.886719 83.257812 141.285156 83.105469 140.667969 83.304688 C 140.035156 83.511719 139.878906 84.03125 140.3125 84.542969 C 140.628906 84.917969 141.042969 85.183594 141.421875 85.492188 C 141.722656 85.738281 142.023438 85.988281 142.242188 86.316406 C 142.734375 87.058594 142.5 87.945312 141.695312 88.328125 C 140.789062 88.753906 139.851562 88.625 138.933594 88.398438 C 138.5625 88.304688 138.816406 87.867188 138.648438 87.554688 C 139.277344 87.714844 139.816406 87.941406 140.40625 87.90625 C 140.867188 87.882812 141.308594 87.796875 141.480469 87.316406 C 141.648438 86.851562 141.386719 86.507812 141.039062 86.226562 C 140.609375 85.878906 140.171875 85.539062 139.765625 85.167969 C 139.320312 84.761719 138.972656 84.296875 139.144531 83.632812 C 139.320312 82.957031 139.835938 82.703125 140.464844 82.582031 C 141.066406 82.460938 141.65625 82.5625 142.246094 82.675781 C 142.65625 82.757812 142.449219 83.109375 142.582031 83.390625 "/>
<path style=" stroke:none;fill-rule:nonzero;fill:rgb(0%,0%,0%);fill-opacity:1;" d="M 107.3125 60.855469 C 106.84375 60.808594 106.296875 60.859375 106.042969 60.339844 C 105.738281 59.707031 105.78125 59.039062 106.074219 58.40625 C 106.191406 58.160156 106.457031 58.0625 106.71875 58.015625 C 107.152344 57.933594 107.589844 57.933594 108.023438 58.015625 C 108.199219 58.050781 108.378906 58.109375 108.5 58.246094 C 108.96875 58.789062 108.859375 59.433594 108.761719 60.054688 C 108.683594 60.570312 108.277344 60.753906 107.8125 60.820312 C 107.652344 60.84375 107.488281 60.84375 107.3125 60.855469 "/>
<path style=" stroke:none;fill-rule:nonzero;fill:rgb(0.392157%,0.392157%,0.392157%);fill-opacity:1;" d="M 133.59375 83.316406 C 133.882812 82.921875 134.261719 82.671875 134.742188 82.566406 C 135.46875 82.40625 135.632812 82.542969 135.625 83.363281 C 135.285156 83.339844 134.9375 83.257812 134.597656 83.359375 C 133.945312 83.550781 133.484375 84.199219 133.394531 85.03125 C 133.285156 86.050781 133.273438 87.074219 133.292969 88.09375 C 133.308594 88.800781 132.804688 88.40625 132.546875 88.476562 C 132.164062 88.578125 132.300781 88.238281 132.308594 88.070312 C 132.386719 86.402344 132.480469 84.734375 132.472656 83.0625 C 132.46875 82.773438 132.566406 82.695312 132.828125 82.722656 C 133.023438 82.746094 133.21875 82.742188 133.410156 82.75 C 133.460938 82.832031 133.445312 82.917969 133.4375 83.003906 C 133.398438 83.121094 133.375 83.242188 133.433594 83.359375 C 133.492188 83.367188 133.542969 83.34375 133.59375 83.316406 "/>
<path style=" stroke:none;fill-rule:nonzero;fill:rgb(0.392157%,0.392157%,0.392157%);fill-opacity:1;" d="M 137.679688 83.261719 C 137.5625 84.90625 137.484375 86.507812 137.492188 88.117188 C 137.496094 88.472656 137.363281 88.5 137.066406 88.488281 C 136.398438 88.453125 136.421875 88.472656 136.460938 87.8125 C 136.546875 86.289062 136.652344 84.765625 136.65625 83.242188 C 136.660156 82.570312 137.042969 82.746094 137.394531 82.726562 C 137.945312 82.695312 137.585938 83.109375 137.679688 83.261719 "/>
<path style=" stroke:none;fill-rule:nonzero;fill:rgb(40%,0.392157%,0%);fill-opacity:1;" d="M 95.824219 63.59375 C 95.816406 65.429688 95.804688 67.265625 95.804688 69.097656 C 95.804688 71.8125 95.8125 74.523438 95.816406 77.234375 C 95.78125 77.214844 95.742188 77.195312 95.707031 77.171875 C 95.625 77.035156 95.660156 76.886719 95.660156 76.742188 C 95.660156 72.527344 95.660156 68.308594 95.660156 64.09375 C 95.660156 63.949219 95.625 63.800781 95.707031 63.664062 C 95.746094 63.640625 95.785156 63.617188 95.824219 63.59375 "/>
<path style=" stroke:none;fill-rule:nonzero;fill:rgb(40%,0.392157%,0%);fill-opacity:1;" d="M 140.738281 63.59375 C 140.734375 65.429688 140.722656 67.265625 140.722656 69.097656 C 140.722656 71.8125 140.730469 74.523438 140.734375 77.234375 C 140.695312 77.214844 140.660156 77.195312 140.621094 77.171875 C 140.539062 77.035156 140.578125 76.886719 140.578125 76.742188 C 140.574219 72.527344 140.574219 68.308594 140.578125 64.09375 C 140.578125 63.949219 140.539062 63.800781 140.621094 63.664062 C 140.660156 63.640625 140.699219 63.617188 140.738281 63.59375 "/>
<path style=" stroke:none;fill-rule:nonzero;fill:rgb(40%,0%,0%);fill-opacity:1;" d="M 106.25 63.628906 C 106.25 67.953125 106.25 72.277344 106.253906 76.601562 C 106.253906 76.8125 106.261719 77.023438 106.265625 77.234375 C 106.230469 77.214844 106.191406 77.195312 106.15625 77.171875 C 106.078125 77.054688 106.109375 76.917969 106.109375 76.792969 C 106.109375 72.5625 106.109375 68.332031 106.109375 64.101562 C 106.109375 63.988281 106.09375 63.871094 106.140625 63.761719 C 106.175781 63.71875 106.214844 63.675781 106.25 63.628906 "/>
<path style=" stroke:none;fill-rule:nonzero;fill:rgb(99.607843%,99.607843%,70.980392%);fill-opacity:1;" d="M 95.707031 63.664062 C 95.707031 68.167969 95.707031 72.671875 95.707031 77.171875 C 95.554688 77.027344 95.613281 76.835938 95.613281 76.664062 C 95.609375 72.5 95.609375 68.335938 95.613281 64.171875 C 95.613281 64 95.554688 63.808594 95.707031 63.664062 "/>
<path style=" stroke:none;fill-rule:nonzero;fill:rgb(99.607843%,99.607843%,70.980392%);fill-opacity:1;" d="M 140.621094 63.664062 C 140.621094 68.167969 140.621094 72.671875 140.621094 77.171875 C 140.46875 77.027344 140.527344 76.835938 140.527344 76.664062 C 140.523438 72.5 140.523438 68.335938 140.527344 64.171875 C 140.527344 64 140.46875 63.808594 140.621094 63.664062 "/>
<path style=" stroke:none;fill-rule:nonzero;fill:rgb(99.607843%,99.607843%,70.980392%);fill-opacity:1;" d="M 106.140625 63.761719 C 106.144531 68.234375 106.148438 72.703125 106.15625 77.171875 C 106 77.027344 106.058594 76.835938 106.058594 76.664062 C 106.058594 72.535156 106.058594 68.40625 106.058594 64.277344 C 106.058594 64.105469 106.003906 63.917969 106.140625 63.761719 "/>
<path style=" stroke:none;fill-rule:nonzero;fill:rgb(4.313725%,3.137255%,2.745098%);fill-opacity:1;" d="M 137.367188 80.691406 C 137.492188 80.722656 137.78125 80.519531 137.808594 80.992188 C 137.839844 81.570312 137.488281 81.457031 137.171875 81.457031 C 136.9375 81.457031 136.683594 81.5625 136.675781 81.113281 C 136.671875 80.59375 136.964844 80.65625 137.367188 80.691406 "/>
<path style=" stroke:none;fill-rule:nonzero;fill:rgb(78.039216%,89.019608%,70.588235%);fill-opacity:1;" d="M 133.59375 83.316406 C 133.558594 83.425781 133.527344 83.535156 133.402344 83.582031 C 133.3125 83.386719 133.335938 83.191406 133.390625 82.992188 C 133.394531 82.910156 133.402344 82.832031 133.410156 82.75 C 133.617188 82.894531 133.367188 83.179688 133.59375 83.316406 "/>
<path style=" stroke:none;fill-rule:nonzero;fill:rgb(99.607843%,99.607843%,99.607843%);fill-opacity:1;" d="M 183.796875 61.039062 C 184.125 61.792969 184.296875 62.589844 184.453125 63.390625 C 184.53125 64.664062 184.410156 65.910156 183.894531 67.097656 C 182.878906 69.519531 181.074219 71.03125 178.550781 71.683594 C 177.402344 71.976562 176.246094 71.945312 175.089844 71.703125 C 173.8125 71.378906 172.660156 70.8125 171.675781 69.917969 C 170.796875 69.089844 170.085938 68.136719 169.660156 66.992188 C 169.636719 66.921875 169.578125 66.863281 169.535156 66.800781 C 169.25 65.746094 169.082031 64.675781 169.117188 63.582031 C 169.28125 62.890625 169.359375 62.1875 169.625 61.519531 C 170.164062 60.152344 171.007812 59.027344 172.175781 58.136719 C 172.210938 58.109375 172.234375 58.0625 172.261719 58.023438 C 173.1875 57.402344 174.175781 56.914062 175.277344 56.699219 C 175.761719 56.605469 176.253906 56.53125 176.75 56.53125 C 178.765625 56.570312 180.527344 57.246094 182.019531 58.609375 C 182.765625 59.308594 183.351562 60.125 183.796875 61.039062 "/>
<path style=" stroke:none;fill-rule:nonzero;fill:rgb(99.607843%,99.607843%,99.607843%);fill-opacity:1;" d="M 89.59375 70.441406 C 89.585938 71.425781 89.484375 72.386719 89.101562 73.304688 C 88.453125 74.847656 87.226562 75.625 85.457031 75.609375 C 83.695312 75.59375 82.496094 74.839844 81.9375 73.226562 C 81.296875 71.378906 81.277344 69.484375 81.957031 67.636719 C 82.558594 66.003906 83.765625 65.234375 85.511719 65.207031 C 87.167969 65.179688 88.402344 65.820312 89.074219 67.386719 C 89.351562 68.035156 89.480469 68.722656 89.546875 69.421875 C 89.578125 69.757812 89.578125 70.101562 89.59375 70.441406 "/>
<path style=" stroke:none;fill-rule:nonzero;fill:rgb(99.607843%,99.607843%,99.607843%);fill-opacity:1;" d="M 134.5 70.425781 C 134.503906 71.40625 134.40625 72.375 134.023438 73.289062 C 133.375 74.851562 132.132812 75.632812 130.339844 75.609375 C 128.589844 75.585938 127.378906 74.816406 126.839844 73.195312 C 126.195312 71.261719 126.171875 69.285156 126.976562 67.382812 C 127.53125 66.066406 128.570312 65.332031 130.023438 65.226562 C 132.480469 65.054688 133.964844 66.234375 134.363281 68.679688 C 134.457031 69.257812 134.5 69.839844 134.5 70.425781 "/>
<path style=" stroke:none;fill-rule:nonzero;fill:rgb(99.607843%,99.607843%,99.607843%);fill-opacity:1;" d="M 158.582031 85.414062 C 158.585938 85.773438 158.527344 86.125 158.425781 86.46875 C 158.128906 87.46875 157.402344 87.964844 156.335938 87.902344 C 155.449219 87.851562 154.851562 87.277344 154.652344 86.300781 C 154.511719 85.609375 154.609375 84.941406 154.882812 84.300781 C 155.21875 83.511719 156.117188 83.074219 157.023438 83.230469 C 157.992188 83.398438 158.507812 84.042969 158.582031 85.167969 C 158.585938 85.25 158.582031 85.332031 158.582031 85.414062 "/>
<path style=" stroke:none;fill-rule:nonzero;fill:rgb(0%,0%,31.372549%);fill-opacity:1;" d="M 133.390625 82.992188 C 133.394531 83.1875 133.398438 83.386719 133.402344 83.582031 C 133.199219 83.390625 133.300781 83.191406 133.390625 82.992188 "/>
</g>
</svg>
